<?xml version="1.0" encoding="utf-8"?>
<!-- Generator: Adobe Illustrator 16.0.0, SVG Export Plug-In . SVG Version: 6.00 Build 0)  -->
<!DOCTYPE svg PUBLIC "-//W3C//DTD SVG 1.1//EN" "http://www.w3.org/Graphics/SVG/1.1/DTD/svg11.dtd">
<svg version="1.1" id="Layer_1" xmlns="http://www.w3.org/2000/svg" xmlns:xlink="http://www.w3.org/1999/xlink" x="0px" y="0px"
	 width="4000px" height="1000px" viewBox="0 0 4000 1000" enable-background="new 0 0 4000 1000" xml:space="preserve">
<path fill="#FFFFFF" d="M363.814,512.647c-0.027,0.236-33.248-10.784-33.361-10.569c-47.748-19.104-97.346-23.153-148.422-17.199
	c20.482-36.905,174.734-113.687,223.001-111.196c-0.048,0.073,18.029-1.026,42.014,3.638c10.996-14.544,22.46-28.798,34.386-42.768
	c66.068-77.42,148.293-130.913,241.924-168.364c6.455-2.582,55.826-20.568,62.319-23.067l0.387,0.396
	c41.784-13.14,84.949-24.247,131.453-31.104c-7.738,46.462-18.227,90.375-32.049,133.024l0.2,0.205
	c-25.342,69.423-72.595,174.521-120.772,231.242c-35.378,41.65-74.563,78.122-117.053,109.77c6.102,10.711,9.644,23,9.644,36.007
	c0,4.13-0.438,8.165-1.113,12.128c-3.283,48.017-69.214,178.405-111.466,213.561c4.532-48.756,2.868-95.588-13.775-139.6
	l-17.033-41.735c-11.896,5.488-19.431,7.238-31.693,12.139l-40.443,14.114c-13.378,19.208-27.138,38.961-40.347,57.899
	c-41.06-41.1-81.68-81.747-123.139-123.247c18.758-13.051,38.528-26.808,57.915-40.299l14.298-40.137
	c1.604-3.83,3.29-7.979,5.021-12.234"/>
<g>
	<path fill="#FFFFFF" d="M1437.42,306.458c25.156,15.554,37.734,39.269,37.734,71.144c0,23.116-7.394,42.638-22.161,58.576
		c-15.976,17.538-37.538,26.307-64.687,26.307h-298.877V154.624h293.487c27.149,0,48.711,8.769,64.687,26.307
		c14.375,15.947,21.562,35.469,21.562,58.576C1469.165,268.2,1458.58,290.521,1437.42,306.458z M1382.916,272.618
		c10.379,0,15.573-7.684,15.573-23.06c0-15.367-5.194-23.06-15.573-23.06h-221.613v46.12H1382.916z M1387.745,390.611
		c10.351,0,15.535-7.684,15.535-23.06c0-15.367-5.185-23.06-15.535-23.06h-226.442v46.12H1387.745z"/>
	<path fill="#FFFFFF" d="M1875.854,367.252c0,25.961-8.189,48.319-24.557,67.083c-16.377,18.773-37.341,28.15-62.89,28.15h-203.644
		c-25.96,0-47.018-9.377-63.189-28.15c-16.171-18.764-24.257-41.122-24.257-67.083V154.624h71.874v212.628
		c0,15.573,5.204,23.359,15.61,23.359h204.168c10.004,0,15.011-7.787,15.011-23.359V154.624h71.875V367.252z"/>
	<path fill="#FFFFFF" d="M2273.554,367.551c0,25.877-7.787,47.973-23.359,66.278c-16.771,19.11-37.94,28.656-63.489,28.656H1920.77
		v-71.874h265.935c9.977,0,14.974-7.684,14.974-23.06c0-15.367-4.997-23.06-14.974-23.06h-193.462
		c-25.558,0-46.718-9.583-63.489-28.75c-15.975-17.969-23.958-39.924-23.958-65.885c0-25.952,8.179-48.31,24.557-67.083
		c16.368-18.764,37.332-28.151,62.89-28.151h265.936v71.875h-266.506c-10.004,0-15.002,7.787-15.002,23.359
		c0,15.18,4.998,22.76,15.002,22.76h193.855c25.605,0,46.812,9.555,63.62,28.656
		C2265.748,319.588,2273.554,341.684,2273.554,367.551z"/>
	<path fill="#FFFFFF" d="M2375.367,462.485h-71.875V154.624h71.875V462.485z"/>
	<path fill="#FFFFFF" d="M2734.139,462.485h-71.874l-185.076-207.237v207.237h-71.875V154.624h71.875l185.076,206.04v-206.04h71.874
		V462.485z"/>
	<path fill="#FFFFFF" d="M3092.91,226.498h-256.95v46.12h240.18v71.874h-240.18v46.12h256.352v71.874h-328.227V154.624h328.825
		V226.498z"/>
	<path fill="#FFFFFF" d="M3490.615,367.551c0,25.877-7.787,47.973-23.359,66.278c-16.771,19.11-37.94,28.656-63.489,28.656h-265.935
		v-71.874h265.935c9.977,0,14.974-7.684,14.974-23.06c0-15.367-4.997-23.06-14.974-23.06h-193.462
		c-25.559,0-46.718-9.583-63.489-28.75c-15.975-17.969-23.958-39.924-23.958-65.885c0-25.952,8.18-48.31,24.558-67.083
		c16.368-18.764,37.331-28.151,62.89-28.151h265.936v71.875h-266.506c-10.005,0-15.002,7.787-15.002,23.359
		c0,15.18,4.997,22.76,15.002,22.76h193.854c25.605,0,46.812,9.555,63.62,28.656C3482.81,319.588,3490.615,341.684,3490.615,367.551
		z"/>
	<path fill="#FFFFFF" d="M3888.312,367.551c0,25.877-7.787,47.973-23.359,66.278c-16.771,19.11-37.94,28.656-63.489,28.656h-265.935
		v-71.874h265.935c9.977,0,14.974-7.684,14.974-23.06c0-15.367-4.997-23.06-14.974-23.06h-193.462
		c-25.559,0-46.718-9.583-63.489-28.75c-15.975-17.969-23.958-39.924-23.958-65.885c0-25.952,8.18-48.31,24.558-67.083
		c16.368-18.764,37.331-28.151,62.89-28.151h265.936v71.875h-266.506c-10.005,0-15.002,7.787-15.002,23.359
		c0,15.18,4.997,22.76,15.002,22.76h193.854c25.605,0,46.812,9.555,63.62,28.656
		C3880.506,319.588,3888.312,341.684,3888.312,367.551z"/>
</g>
<g>
	<path fill="#F79400" d="M1398.595,827.926h-220.934c-25.908,0-47.93-8.587-66.058-25.761c-18.136-17.174-27.2-38.685-27.2-64.549
		V632.908c0-25.855,9.064-47.375,27.2-64.549c18.128-17.174,40.15-25.76,66.058-25.76h220.934v66.612h-220.934
		c-17.764,0-26.645,7.928-26.645,23.783v104.534c0,15.855,8.881,23.783,26.645,23.783h220.934V827.926z"/>
	<path fill="#F79400" d="M1819.367,737.616c0,25.864-9.073,47.375-27.2,64.549c-18.137,17.174-40.159,25.761-66.058,25.761h-167.643
		c-25.908,0-47.93-8.587-66.058-25.761c-18.136-17.174-27.2-38.685-27.2-64.549V632.908c0-25.855,9.064-47.375,27.2-64.549
		c18.128-17.174,40.15-25.76,66.058-25.76h167.643c25.899,0,47.921,8.586,66.058,25.76c18.127,17.174,27.2,38.693,27.2,64.549
		V737.616z M1752.753,737.529V632.995c0-15.855-8.881-23.783-26.645-23.783h-167.643c-17.764,0-26.645,7.928-26.645,23.783v104.534
		c0,15.855,8.881,23.783,26.645,23.783h167.643C1743.872,761.313,1752.753,753.385,1752.753,737.529z"/>
	<path fill="#F79400" d="M2236.247,827.926h-66.613v-90.483h-175.415v-66.613h175.415v-39.968c0-14.433-4.813-21.649-14.433-21.649
		h-188.737c-9.255,0-13.877,7.199-13.877,21.598v197.116h-66.613V630.688c0-24.009,7.494-44.687,22.482-62.051
		c14.988-17.356,34.321-26.038,58.009-26.038h188.737c24.052,0,43.576,8.682,58.564,26.038
		c14.987,17.364,22.481,38.042,22.481,62.051V827.926z"/>
	<path fill="#F79400" d="M2617.052,827.926h-220.934c-25.908,0-47.931-8.587-66.058-25.761
		c-18.137-17.174-27.201-38.685-27.201-64.549V632.908c0-25.855,9.064-47.375,27.201-64.549
		c18.127-17.174,40.149-25.76,66.058-25.76h220.934v66.612h-220.934c-17.764,0-26.646,7.928-26.646,23.783v104.534
		c0,15.855,8.882,23.783,26.646,23.783h220.934V827.926z"/>
	<path fill="#F79400" d="M2988.419,827.926h-66.613V718.568h-171.529v109.357h-66.613V542.6h66.613v109.356h171.529V542.6h66.613
		V827.926z"/>
	<path fill="#F79400" d="M3121.645,827.926h-66.613V542.6h66.613V827.926z"/>
	<path fill="#F79400" d="M3493.012,827.926h-66.613l-171.529-192.068v192.068h-66.613V542.6h66.613l171.529,190.957V542.6h66.613
		V827.926z"/>
	<path fill="#F79400" d="M3873.815,827.926h-220.934c-25.908,0-47.931-8.587-66.058-25.761
		c-18.137-17.174-27.201-38.685-27.201-64.549V632.908c0-25.855,9.064-47.375,27.201-64.549
		c18.127-17.174,40.149-25.76,66.058-25.76h220.934v66.612h-220.934c-17.764,0-26.646,7.928-26.646,23.783v104.534
		c0,15.855,8.882,23.783,26.646,23.783h154.32v-42.744h-90.482v-66.612h157.096V827.926z"/>
</g>
<g>
	<g>
		<path fill="#296BEF" d="M784.27,316.698c0-34.625-28.068-62.685-62.683-62.685c-34.627,0-62.685,28.06-62.685,62.685
			c0,34.614,28.058,62.673,62.685,62.673C756.202,379.372,784.27,351.313,784.27,316.698z"/>
		<path fill="#296BEF" d="M786.062,143.517c-0.614,0.197-1.24,0.38-1.854,0.576"/>
		<path fill="#296BEF" d="M948.187,74.905c-20.67,2.901-41.489,5.007-61.947,8.983c-71.355,13.888-140.789,34.27-206.826,65
			c-14.235,6.62-28.118,8.982-43.821,8.918l-403.07-4.88c-26.3,0-50.702,24.95-50.702,51.25V434.68
			c-46.69,34.151-82.801,74.713-121.694,115.682c20.335-5.354,39.103-12.337,59.128-17.711c20.254-5.439,39.221-9.288,62.566-14.268
			v213.434c-4.669,16.303-19.16,32.402-28.944,50.09c-19.433,35.148-37.702,73.689-53.191,104.653
			c-1.421,2.841-2.196,5.65-3.428,8.363c-0.547,1.19-0.83,2.377-1.378,3.557c-2.698,5.813-1.409,12.686,3.046,17.285l1.182,1.156
			c2.963,3.079,7.044,4.737,11.183,4.737c1.633,0,3.292-0.26,4.898-0.793c0.657-0.219,1.335-0.425,2.006-0.629
			c1.943-0.593,4.144-1.266,6.502-2.279c5.95-2.545,11.919-5.061,17.883-7.577c15.438-6.511,31.405-13.25,46.99-20.425
			c3.984-1.83,7.979-3.65,11.982-5.475c20.687-9.424,42.075-18.99,62.37-30.59c5.758-3.299,11.49-9.957,17.176-9.957h230.644
			c-4.442,23.344-7.583,43.188-12.936,63.434c-5.312,20.086-12.854,39.643-19.419,59.399c1.007,0.612,2.011,1.244,3.023,1.851
			c38.09-40.858,76.19-77.994,116.268-124.684h227.576c26.299,0,47.573-22.446,47.573-48.752V619.613
			c0,0.151-0.491,0.272-0.747,0.426c-0.019-79.537-0.006-159.059,0.082-238.634c0-6.756,1.052-13.989,3.823-20.053
			c16.739-36.631,31.256-74,43.194-112.501c14.618-47.136,25.406-95.066,33.137-143.734c1.551-9.803,1.935-19.77,2.911-30.257
			C952.134,74.86,950.123,74.633,948.187,74.905z M337.018,768.52c-0.347,1.814-2.024,3.217-3.378,4.081
			c-7.456,4.787-14.888,9.62-22.319,14.453c-20.724,13.485-42.162,27.429-63.77,39.782c-19.054,10.898-39.787,20.344-59.838,29.48
			c-4.028,1.834-8.054,3.671-12.075,5.516c-11.745,5.404-23.846,10.609-35.778,15.67c12.926-25.685,27.521-54.203,42.121-80.607
			c11.941-21.588,25.073-41.166,38.975-61.89l3.225-4.809c5.757-8.59,12.019-17.23,18.082-25.574
			c2.659-3.671,5.316-7.331,7.952-11.018l0.852-1.203c1.086-1.527,2.112-2.977,3.033-4.025c1.122-1.267,2.864-2.782,4.823-2.782
			c1.706,0,3.402,1.04,4.524,1.924c27.102,21.154,51.22,46.458,71.707,75.238C336.667,764.879,337.328,766.928,337.018,768.52z
			 M363.814,512.647c-0.027,0.236-33.248-10.784-33.361-10.569c-47.748-19.104-97.346-23.153-148.422-17.199
			c20.482-36.905,174.734-113.687,223.001-111.196c-0.048,0.073,18.029-1.026,42.014,3.638
			c10.996-14.544,22.46-28.798,34.386-42.768c66.068-77.42,148.293-130.913,241.924-168.364
			c6.455-2.582,55.826-20.568,62.319-23.067l0.387,0.396c41.784-13.14,84.949-24.247,131.453-31.104
			c-7.738,46.462-18.227,90.375-32.049,133.024l0.2,0.205c-25.342,69.423-72.595,174.521-120.772,231.242
			c-35.378,41.65-74.563,78.122-117.053,109.77c6.102,10.711,9.644,23,9.644,36.007c0,4.13-0.438,8.165-1.113,12.128
			c-3.283,48.017-69.214,178.405-111.466,213.561c4.532-48.756,2.868-95.588-13.775-139.6l-17.033-41.735
			c-11.896,5.488-19.431,7.238-31.693,12.139l-40.443,14.114c-13.378,19.208-27.138,38.961-40.347,57.899
			c-41.06-41.1-81.68-81.747-123.139-123.247c18.758-13.051,38.528-26.808,57.915-40.299l14.298-40.137
			c1.604-3.83,3.29-7.979,5.021-12.234"/>
	</g>
	<path fill="#F79400" d="M337.018,768.52c-0.347,1.814-2.024,3.217-3.378,4.081c-7.456,4.787-14.888,9.62-22.319,14.453
		c-20.724,13.485-42.162,27.429-63.77,39.782c-19.054,10.898-39.787,20.344-59.838,29.48c-4.028,1.834-8.054,3.671-12.075,5.516
		c-11.745,5.404-23.846,10.609-35.778,15.67c12.926-25.685,27.521-54.203,42.121-80.607c11.941-21.588,25.073-41.166,38.975-61.89
		l3.225-4.809c5.757-8.59,12.019-17.23,18.082-25.574c2.659-3.671,5.316-7.331,7.952-11.018l0.852-1.203
		c1.086-1.527,2.112-2.977,3.033-4.025c1.122-1.267,2.864-2.782,4.823-2.782c1.706,0,3.402,1.04,4.524,1.924
		c27.102,21.154,51.22,46.458,71.707,75.238C336.667,764.879,337.328,766.928,337.018,768.52z"/>
</g>
</svg>
