<?xml version="1.0" encoding="utf-8"?>
<!-- Generator: Adobe Illustrator 16.0.0, SVG Export Plug-In . SVG Version: 6.00 Build 0)  -->
<!DOCTYPE svg PUBLIC "-//W3C//DTD SVG 1.1//EN" "http://www.w3.org/Graphics/SVG/1.1/DTD/svg11.dtd">
<svg version="1.1" id="Layer_1" xmlns="http://www.w3.org/2000/svg" xmlns:xlink="http://www.w3.org/1999/xlink" x="0px" y="0px"
	 width="1080px" height="1080px" viewBox="0 0 1080 1080" enable-background="new 0 0 1080 1080" xml:space="preserve">
<path fill="#FFFFFF" d="M382.476,530.094c-0.03,0.259-36.405-11.808-36.529-11.573c-52.282-20.917-106.591-25.352-162.516-18.833
	c22.428-40.409,191.328-124.483,244.178-121.756c-0.053,0.08,19.741-1.124,46.003,3.983c12.041-15.926,24.594-31.533,37.651-46.829
	c72.342-84.772,162.375-143.344,264.897-184.352c7.067-2.827,61.127-22.521,68.237-25.258l0.423,0.433
	c45.752-14.388,93.017-26.55,143.936-34.059c-8.474,50.874-19.958,98.958-35.093,145.656l0.22,0.225
	c-27.748,76.016-79.488,191.094-132.241,253.201c-38.737,45.605-81.644,85.541-128.169,120.194
	c6.683,11.728,10.561,25.184,10.561,39.426c0,4.521-0.479,8.94-1.219,13.279c-3.595,52.576-75.786,195.347-122.052,233.841
	c4.964-53.386,3.142-104.665-15.082-152.856l-18.651-45.698c-13.026,6.009-21.275,7.926-34.703,13.291l-44.284,15.455
	c-14.648,21.032-29.714,42.66-44.178,63.397c-44.959-45.003-89.437-89.51-134.833-134.951c20.539-14.29,42.188-29.354,63.415-44.125
	l15.655-43.948c1.757-4.194,3.603-8.736,5.499-13.396"/>
<g>
	<g>
		<path fill="#296BEF" d="M842.505,315.203c0-37.914-30.734-68.638-68.636-68.638c-37.915,0-68.637,30.724-68.637,68.638
			c0,37.901,30.722,68.625,68.637,68.625C811.771,383.827,842.505,353.104,842.505,315.203z"/>
		<path fill="#296BEF" d="M844.82,125.91c-0.672,0.216-1.357,0.416-2.03,0.63"/>
		<path fill="#296BEF" d="M1022.343,50.783c-22.635,3.176-45.43,5.482-67.83,9.836c-78.132,15.207-154.159,37.524-226.467,71.173
			c-15.586,7.249-30.788,9.835-47.981,9.766l-441.347-5.343c-28.797,0-55.517,27.319-55.517,56.117v252.391
			C132.077,482.117,92.537,526.53,49.95,571.39c22.267-5.863,42.816-13.509,64.744-19.394c22.177-5.956,42.945-10.17,68.507-15.622
			v233.701c-5.112,17.852-20.979,35.479-31.693,54.847c-21.278,38.486-41.282,80.688-58.243,114.592
			c-1.556,3.11-2.405,6.187-3.753,9.157c-0.6,1.304-0.909,2.603-1.509,3.895c-2.955,6.365-1.543,13.89,3.335,18.927l1.294,1.266
			c3.244,3.371,7.713,5.188,12.245,5.188c1.789,0,3.605-0.285,5.363-0.868c0.719-0.24,1.462-0.466,2.196-0.689
			c2.128-0.648,4.539-1.386,7.12-2.495c6.515-2.787,13.051-5.541,19.582-8.297c16.903-7.129,34.387-14.508,51.452-22.364
			c4.362-2.004,8.737-3.997,13.12-5.995c22.651-10.318,46.071-20.793,68.293-33.494c6.305-3.612,12.581-10.902,18.807-10.902
			h252.546c-4.863,25.561-8.303,47.289-14.164,69.457c-5.817,21.993-14.074,43.407-21.264,65.04
			c1.103,0.671,2.202,1.362,3.311,2.026c41.706-44.738,83.424-85.4,127.309-136.523h249.186c28.798,0,52.092-24.578,52.092-53.382
			v-192.24c0,0.165-0.539,0.298-0.817,0.466c-0.021-87.09-0.007-174.164,0.09-261.295c0-7.398,1.151-15.317,4.186-21.957
			c18.328-40.109,34.225-81.027,47.296-123.184c16.006-51.612,27.818-104.094,36.284-157.383c1.698-10.734,2.118-21.647,3.188-33.13
			C1026.664,50.734,1024.462,50.485,1022.343,50.783z M353.136,810.264c-0.379,1.987-2.217,3.522-3.7,4.469
			c-8.163,5.242-16.301,10.534-24.438,15.826c-22.691,14.766-46.166,30.033-69.825,43.56c-20.864,11.934-43.565,22.275-65.521,32.28
			c-4.411,2.008-8.818,4.02-13.222,6.039c-12.86,5.918-26.111,11.617-39.176,17.158c14.153-28.124,30.134-59.351,46.12-88.262
			c13.076-23.639,27.454-45.075,42.676-67.768l3.531-5.265c6.305-9.405,13.161-18.867,19.799-28.003
			c2.912-4.02,5.821-8.027,8.707-12.063l0.933-1.317c1.189-1.673,2.313-3.26,3.321-4.408c1.229-1.387,3.136-3.046,5.281-3.046
			c1.868,0,3.726,1.139,4.954,2.106c29.675,23.163,56.084,50.869,78.516,82.383C352.752,806.277,353.475,808.521,353.136,810.264z
			 M382.476,530.094c-0.03,0.259-36.405-11.808-36.529-11.573c-52.282-20.917-106.591-25.352-162.516-18.833
			c22.428-40.409,191.328-124.483,244.178-121.756c-0.053,0.08,19.741-1.124,46.003,3.983
			c12.041-15.926,24.594-31.533,37.651-46.829c72.342-84.772,162.375-143.344,264.897-184.352
			c7.067-2.827,61.127-22.521,68.237-25.258l0.423,0.433c45.752-14.388,93.017-26.55,143.936-34.059
			c-8.474,50.874-19.958,98.958-35.093,145.656l0.22,0.225c-27.748,76.016-79.488,191.094-132.241,253.201
			c-38.737,45.605-81.644,85.541-128.169,120.194c6.683,11.728,10.561,25.184,10.561,39.426c0,4.521-0.479,8.94-1.219,13.279
			c-3.595,52.576-75.786,195.347-122.052,233.841c4.964-53.386,3.142-104.665-15.082-152.856l-18.651-45.698
			c-13.026,6.009-21.275,7.926-34.703,13.291l-44.284,15.455c-14.648,21.032-29.714,42.66-44.178,63.397
			c-44.959-45.003-89.437-89.51-134.833-134.951c20.539-14.29,42.188-29.354,63.415-44.125l15.655-43.948
			c1.757-4.194,3.603-8.736,5.499-13.396"/>
	</g>
	<path fill="#F79400" d="M352.781,809.93c-0.379,1.986-2.217,3.521-3.699,4.469c-8.164,5.241-16.301,10.533-24.438,15.825
		c-22.692,14.766-46.166,30.033-69.825,43.56c-20.864,11.934-43.565,22.276-65.521,32.28c-4.41,2.008-8.818,4.02-13.222,6.039
		c-12.86,5.918-26.111,11.617-39.176,17.158c14.154-28.123,30.134-59.351,46.12-88.262c13.075-23.638,27.455-45.075,42.676-67.767
		l3.531-5.266c6.304-9.405,13.161-18.866,19.799-28.003c2.911-4.02,5.821-8.027,8.707-12.063l0.933-1.317
		c1.189-1.673,2.313-3.259,3.321-4.407c1.229-1.388,3.136-3.047,5.281-3.047c1.868,0,3.725,1.139,4.954,2.106
		c29.675,23.163,56.084,50.87,78.517,82.383C352.397,805.943,353.12,808.187,352.781,809.93z"/>
</g>
</svg>
