<?xml version="1.0" encoding="UTF-8"?>
<!-- Generated by Pixelmator Pro 3.3.1 -->
<svg width="981" height="980" viewBox="0 0 981 980" xmlns="http://www.w3.org/2000/svg" xmlns:xlink="http://www.w3.org/1999/xlink">
    <path id="Path" fill="#ffffff" stroke="none" d="M 332.476013 480.093994 C 332.446014 480.353027 296.071014 468.286011 295.946991 468.520996 C 243.665009 447.604004 189.356003 443.169006 133.431 449.687988 C 155.858994 409.278992 324.759003 325.204956 377.609009 327.932007 C 377.556 328.011963 397.350006 326.807983 423.612 331.915039 C 435.653015 315.989014 448.205994 300.381958 461.263 285.085999 C 533.60498 200.313965 623.638 141.742004 726.159973 100.734009 C 733.22699 97.906982 787.286987 78.213013 794.396973 75.476013 L 794.820007 75.908997 C 840.572021 61.520996 887.836975 49.359009 938.755981 41.849976 C 930.281982 92.723999 918.797974 140.807983 903.663025 187.505981 L 903.882996 187.731018 C 876.13501 263.747009 824.39502 378.825012 771.642029 440.932007 C 732.905029 486.536987 689.997986 526.473022 643.473022 561.125977 C 650.156006 572.854004 654.033997 586.309998 654.033997 600.552002 C 654.033997 605.072998 653.554993 609.492004 652.815002 613.830994 C 649.219971 666.406982 577.028992 809.177979 530.763 847.671997 C 535.72699 794.286011 533.905029 743.007019 515.68103 694.815979 L 497.030029 649.117981 C 484.004028 655.127014 475.755005 657.044006 462.327026 662.408997 L 418.042999 677.864014 C 403.394989 698.895996 388.32901 720.523987 373.86499 741.260986 C 328.906006 696.257996 284.428009 651.750977 239.032013 606.309998 C 259.571014 592.02002 281.220001 576.955994 302.446991 562.184998 L 318.10199 518.237 C 319.859009 514.04303 321.704987 509.500977 323.601013 504.841003"/>
    <g id="Group">
        <g id="g1">
            <path id="path1" fill="#296bef" stroke="none" d="M 792.505005 265.203003 C 792.505005 227.289001 761.770996 196.565002 723.869019 196.565002 C 685.953979 196.565002 655.231995 227.289001 655.231995 265.203003 C 655.231995 303.104004 685.953979 333.828003 723.869019 333.828003 C 761.770996 333.827026 792.505005 303.104004 792.505005 265.203003 Z"/>
            <path id="path2" fill="#296bef" stroke="none" d="M 794.820007 75.910034 C 794.14801 76.125977 793.463013 76.325989 792.789978 76.539978"/>
            <path id="path3" fill="#296bef" stroke="none" d="M 972.343018 0.782959 C 949.708008 3.958984 926.913025 6.265015 904.513 10.619019 C 826.380981 25.825989 750.354004 48.143005 678.046021 81.791992 C 662.460022 89.041016 647.257996 91.627014 630.065002 91.557983 L 188.718002 86.214966 C 159.921005 86.214966 133.201004 113.533997 133.201004 142.332031 L 133.201004 394.723022 C 82.076996 432.117004 42.537003 476.530029 -0.049999 521.390015 C 22.217003 515.526978 42.765999 507.880981 64.694 501.995972 C 86.871002 496.039978 107.639008 491.825989 133.201004 486.374023 L 133.201004 720.075012 C 128.089005 737.927002 112.222 755.554016 101.507996 774.921997 C 80.229996 813.40802 60.225998 855.609985 43.264999 889.513977 C 41.709 892.624023 40.860001 895.700989 39.512001 898.671021 C 38.912003 899.974976 38.602997 901.273987 38.002998 902.565979 C 35.047997 908.93103 36.459999 916.455994 41.337997 921.492981 L 42.632004 922.758972 C 45.875999 926.130005 50.345001 927.947021 54.876999 927.947021 C 56.666 927.947021 58.482002 927.661987 60.239998 927.078979 C 60.959 926.838989 61.702003 926.612976 62.435997 926.390015 C 64.564003 925.742004 66.974998 925.004028 69.556 923.89502 C 76.070999 921.107971 82.606995 918.354004 89.138 915.598022 C 106.041 908.468994 123.524994 901.090027 140.589996 893.234009 C 144.951996 891.22998 149.326996 889.237 153.710007 887.239014 C 176.360992 876.921021 199.781006 866.445984 222.002991 853.744995 C 228.308014 850.132996 234.584015 842.843018 240.809998 842.843018 L 493.356018 842.843018 C 488.492981 868.403992 485.052979 890.132019 479.192017 912.299988 C 473.375 934.29303 465.117981 955.70697 457.928009 977.339966 C 459.031006 978.010986 460.130005 978.702026 461.239014 979.365967 C 502.945007 934.627991 544.663025 893.966003 588.547974 842.843018 L 837.734009 842.843018 C 866.531982 842.843018 889.825989 818.265015 889.825989 789.460999 L 889.825989 597.221008 C 889.825989 597.385986 889.286987 597.518982 889.008972 597.687012 C 888.987976 510.596985 889.002014 423.52301 889.098999 336.391968 C 889.098999 328.994019 890.25 321.075012 893.284973 314.434998 C 911.612976 274.325989 927.51001 233.407959 940.580994 191.250977 C 956.586975 139.639038 968.398987 87.156982 976.86499 33.867981 C 978.562988 23.134033 978.983032 12.221008 980.052979 0.738037 C 976.66394 0.734009 974.462036 0.484985 972.343018 0.782959 Z M 303.135986 760.263977 C 302.756989 762.250977 300.919006 763.786011 299.436005 764.732971 C 291.27301 769.974976 283.13501 775.267029 274.997986 780.559021 C 252.307007 795.325012 228.832001 810.59198 205.173004 824.119019 C 184.309006 836.052979 161.608002 846.393982 139.651993 856.398987 C 135.240997 858.406982 130.834 860.419006 126.429993 862.437988 C 113.570007 868.356018 100.319 874.054993 87.253998 879.596008 C 101.406998 851.471985 117.388 820.244995 133.373993 791.333984 C 146.449997 767.695007 160.828003 746.258972 176.050003 723.565979 L 179.580994 718.301025 C 185.886002 708.895996 192.742004 699.434021 199.380005 690.297974 C 202.292007 686.278015 205.201004 682.270996 208.087006 678.234985 L 209.019989 676.91803 C 210.209015 675.244995 211.333008 673.65802 212.341003 672.51001 C 213.570007 671.122986 215.47699 669.463989 217.622009 669.463989 C 219.48999 669.463989 221.347992 670.603027 222.575989 671.570007 C 252.251007 694.732971 278.660004 722.439026 301.09201 753.953003 C 302.752014 756.276978 303.475006 758.520996 303.135986 760.263977 Z M 332.476013 480.093994 C 332.446014 480.353027 296.071014 468.286011 295.946991 468.520996 C 243.665009 447.604004 189.356003 443.169006 133.431 449.687988 C 155.858994 409.278992 324.759003 325.204956 377.609009 327.932007 C 377.556 328.011963 397.350006 326.807983 423.612 331.915039 C 435.653015 315.989014 448.205994 300.381958 461.263 285.085999 C 533.60498 200.313965 623.638 141.742004 726.159973 100.734009 C 733.22699 97.906982 787.286987 78.213013 794.396973 75.476013 L 794.820007 75.908997 C 840.572021 61.520996 887.836975 49.359009 938.755981 41.849976 C 930.281982 92.723999 918.797974 140.807983 903.663025 187.505981 L 903.882996 187.731018 C 876.13501 263.747009 824.39502 378.825012 771.642029 440.932007 C 732.905029 486.536987 689.997986 526.473022 643.473022 561.125977 C 650.156006 572.854004 654.033997 586.309998 654.033997 600.552002 C 654.033997 605.072998 653.554993 609.492004 652.815002 613.830994 C 649.219971 666.406982 577.028992 809.177979 530.763 847.671997 C 535.72699 794.286011 533.905029 743.007019 515.68103 694.815979 L 497.030029 649.117981 C 484.004028 655.127014 475.755005 657.044006 462.327026 662.408997 L 418.042999 677.864014 C 403.394989 698.895996 388.32901 720.523987 373.86499 741.260986 C 328.906006 696.257996 284.428009 651.750977 239.032013 606.309998 C 259.571014 592.02002 281.220001 576.955994 302.446991 562.184998 L 318.10199 518.237 C 319.859009 514.04303 321.704987 509.500977 323.601013 504.841003"/>
        </g>
        <path id="path4" fill="#f79400" stroke="none" d="M 302.781006 759.929993 C 302.402008 761.916016 300.563995 763.450989 299.082001 764.398987 C 290.917999 769.640015 282.781006 774.932007 274.644012 780.223999 C 251.951996 794.98999 228.477997 810.257019 204.819 823.783997 C 183.955002 835.718018 161.253998 846.059998 139.298004 856.064026 C 134.888 858.072021 130.479996 860.083984 126.076004 862.103027 C 113.216003 868.020996 99.964996 873.719971 86.899994 879.260986 C 101.054001 851.138 117.033997 819.909973 133.020004 790.999023 C 146.095001 767.361023 160.475006 745.924011 175.695999 723.231995 L 179.227005 717.966003 C 185.531006 708.560974 192.388 699.099976 199.026001 689.963013 C 201.936996 685.942993 204.847 681.935974 207.733002 677.900024 L 208.665985 676.583008 C 209.855011 674.909973 210.979004 673.323975 211.987 672.176025 C 213.216003 670.788025 215.122986 669.129028 217.268005 669.129028 C 219.135986 669.129028 220.993011 670.268005 222.221985 671.234985 C 251.897003 694.39801 278.306 722.10498 300.739014 753.617981 C 302.397003 755.942993 303.119995 758.187012 302.781006 759.929993 Z"/>
    </g>
</svg>
